<?xml version="1.0" encoding="utf-8"?>
<!-- Generator: Adobe Illustrator 19.0.0, SVG Export Plug-In . SVG Version: 6.00 Build 0)  -->
<svg version="1.1" id="Layer_1" xmlns="http://www.w3.org/2000/svg" xmlns:xlink="http://www.w3.org/1999/xlink" x="0px" y="0px"
	 viewBox="-349 351 100 100" style="enable-background:new -349 351 100 100;" xml:space="preserve">
<style type="text/css">
	.st0{fill:#00D151;}
	.st1{fill:#FFFFFF;}
</style>
<ellipse class="st0" cx="-298.4" cy="412.6" rx="24.2" ry="34.1"/>
<ellipse class="st0" cx="-298.8" cy="408.5" rx="35.6" ry="22.6"/>
<ellipse transform="matrix(0.7071 0.7071 -0.7071 0.7071 201.2634 331.0657)" class="st0" cx="-299" cy="408.5" rx="22.6" ry="35.6"/>
<ellipse transform="matrix(-0.7071 0.7071 -0.7071 -0.7071 -219.0211 910.2142)" class="st0" cx="-298" cy="409.7" rx="22.6" ry="35.6"/>
<ellipse transform="matrix(0.8893 0.4574 -0.4574 0.8893 132.8678 185.0006)" class="st0" cx="-315.6" cy="366.9" rx="17" ry="10.1"/>
<ellipse class="st0" cx="-314.2" cy="366.9" rx="13.7" ry="13.2"/>
<ellipse transform="matrix(-0.9053 0.4247 -0.4247 -0.9053 -381.159 817.0117)" class="st0" cx="-281.6" cy="366" rx="17" ry="10.1"/>
<ellipse transform="matrix(-0.7202 0.6938 -0.6938 -0.7202 -231.557 828.4805)" class="st0" cx="-282.8" cy="367.5" rx="14.8" ry="13.6"/>
<path class="st1" d="M-320.6,380.3c-0.4-0.1-0.8-0.3-1.2-0.4c-0.9-0.3-1.5-0.9-1.8-1.8c-0.1-0.2-0.2-0.4-0.5-0.4
	c-1.4-0.4-2.4-1.2-2.8-2.7c0-0.2-0.2-0.3-0.4-0.5c-0.6-0.4-1.1-0.8-1.6-1.4c-0.4-0.5-0.6-1.1-0.7-1.7c0-0.3-0.1-0.5-0.4-0.7
	c-0.9-0.7-1.3-1.6-1.2-2.8c0-0.3-0.1-0.5-0.3-0.8c-0.6-0.7-1.2-1.5-1-2.5c0.1-0.7,0-1.1-0.4-1.7c-0.6-0.9-0.5-1.9,0.1-2.7
	c0.2-0.2,0.2-0.4,0.1-0.7c-0.9-2,0.2-3.8,2.8-3.8c0.3,0,0.5,0,0.7-0.3c0.7-0.8,1.8-1.1,2.8-1.2c0.2,0,0.4,0,0.6,0
	c0.5,0.1,0.9-0.1,1.3-0.4c0.6-0.5,1.3-0.5,2-0.5c0.3,0,0.5,0.1,0.8-0.1c1-0.8,2.2-0.8,3.4-0.4c0.4,0.1,0.7,0.1,1.1-0.1
	c0.6-0.4,1.4-0.5,2.1-0.2c0.3,0.1,0.6,0.2,0.9,0.4c0.5,0.2,0.9,0.3,1.4,0.1c0.8-0.2,1.5,0,2.1,0.4c0.5,0.3,0.9,0.4,1.5,0.3
	c1.1-0.2,2,0.3,2.8,1.1c0.4,0.5,0.9,0.8,1.6,0.7c0.3,0,0.6,0.1,0.8,0.3c1.7,1.1,2.9,2.7,3.9,4.4c0.6,1.1,1.1,2.2,1.5,3.4
	c0.3-0.8,0.6-1.5,0.9-2.2c1-2.1,2.3-4,4.1-5.4c0.5-0.3,0.9-0.6,1.5-0.5c0.4,0.1,0.7-0.1,1-0.4c0.6-0.6,1.2-1.2,2.1-1.4
	c0.3,0,0.6-0.1,0.9,0c0.5,0.1,1,0,1.4-0.3c0.8-0.5,1.6-0.6,2.6-0.4c0.3,0.1,0.5,0.1,0.7,0c0.3-0.1,0.6-0.3,1-0.4
	c0.9-0.4,1.8-0.3,2.6,0.2c0.2,0.1,0.4,0.2,0.6,0.1c0.7-0.2,1.5-0.5,2.3-0.3c0.2,0,0.4,0.1,0.5,0.2c0.7,0.6,1.6,0.6,2.5,0.6
	c0.5,0,1,0.2,1.3,0.6c0.2,0.2,0.5,0.3,0.8,0.3c0.7,0,1.4,0,2,0.2c0.4,0.1,0.8,0.3,1.2,0.6c0.6,0.4,1.2,0.7,1.9,0.8
	c1.9,0.2,2.9,1.7,2.2,3.5c-0.2,0.4-0.1,0.7,0.1,1.1c0.6,0.9,0.5,1.9-0.1,2.7c-0.3,0.5-0.4,0.9-0.3,1.4c0.2,0.9-0.2,1.6-0.8,2.3
	c-0.3,0.4-0.5,0.8-0.4,1.3c0.1,1-0.4,1.8-1.1,2.4c-0.3,0.3-0.5,0.5-0.5,0.9c0,0.7-0.3,1.2-0.8,1.8c-0.3,0.3-0.5,0.6-0.9,0.8
	c-0.6,0.4-0.9,0.8-1.2,1.5c-0.3,1.1-1.3,1.6-2.3,1.9c-0.4,0.1-0.7,0.3-0.9,0.8c-0.3,0.8-0.9,1.2-1.6,1.5c-0.4,0.2-0.8,0.3-1.3,0.4
	c0.2,0.1,0.3,0.2,0.5,0.3c1.9,1.2,3.7,2.5,5,4.3c1.6,2.1,2.4,4.5,2.8,7c0.1,1,0.2,2,0.2,3c0,0.7,0.4,1.4,0.9,1.8
	c3.3,2.3,5.2,5.5,6,9.4c1,4.7-0.3,8.8-3.3,12.5c-0.2,0.2-0.3,0.4-0.4,0.7c-0.3,1.7-0.9,3.3-1.5,4.9c-0.3,0.9-0.6,1.8-0.8,2.8
	c-0.9,4.1-3.1,7.3-6.4,9.8c-1.1,0.8-2.2,1.5-3.5,2c-0.3,0.1-0.5,0.3-0.8,0.5c-2.7,2-5.6,3.8-8.8,4.9c-0.3,0.1-0.5,0.4-0.8,0.6
	c-2.1,2-4.5,3.6-7.4,4.3c-4.9,1.3-9.5,0.5-13.6-2.5c-0.9-0.6-1.7-1.3-2.4-2.1c-0.2-0.2-0.4-0.3-0.7-0.4c-3-1.1-5.8-2.7-8.3-4.7
	c-0.6-0.5-1.3-0.8-2-1.1c-3-1.5-5.4-3.7-7.1-6.6c-1.1-1.8-1.7-3.7-2.1-5.8c-0.1-0.9-0.5-1.7-0.8-2.5c-0.5-1.4-0.9-2.8-1.2-4.2
	c-0.1-0.3-0.2-0.5-0.4-0.7c-1.7-2-2.8-4.2-3.3-6.8c-0.8-4.3,0.2-8.3,2.7-11.8c0.9-1.3,2-2.4,3.3-3.3c0.6-0.4,0.9-1.1,0.9-1.8
	c0-2.4,0.4-4.8,1.3-7c1.1-2.6,2.8-4.6,5.1-6.2C-322,381.2-321.3,380.7-320.6,380.3z M-328.2,368.5c0,0.2,0.2,0.3,0.3,0.4
	c0.7,0.8,1.6,1.4,2.5,2c0.2,0.1,0.5,0.2,0.4,0.4s-0.4,0.2-0.6,0.2c-0.1,0-0.1,0-0.2,0c-0.2,0-0.6-0.1-0.7,0.1
	c-0.1,0.3,0.3,0.4,0.5,0.5c1,0.8,2.1,1.3,3.2,1.8c0.1,0.1,0.3,0.1,0.3,0.3c0,0.2-0.2,0.2-0.3,0.3c-0.4,0.2-0.8,0.1-1.2,0.2
	c0.5,0.3,0.9,0.6,1.4,0.8c0.9,0.3,1.7,0.6,2.6,0.9c0.4,0.1,0.4,0.3,0.1,0.5c-0.2,0.2-0.6,0.3-0.8,0.5c0.8,0.4,1.5,0.5,2.3,0.6
	c0.7,0.1,1.3,0.1,2,0.2c0.2,0,0.4,0,0.4,0.2c0.1,0.2-0.1,0.3-0.2,0.4c-0.2,0.2-0.4,0.4-0.7,0.6c0.9,0.1,1.8,0,2.6,0
	c1.7-0.1,3.4-0.5,4.9-1.2c1.9-0.8,3.4-2.1,4.1-4.1c0.2-0.6,0.1-1-0.3-1.4c-1.5-1.4-3-2.8-4.7-4c-3.6-2.6-7.4-4.7-11.3-6.8
	c-0.1-0.1-0.3-0.1-0.4-0.3c0.3,0.1,0.5,0.2,0.8,0.3c4.1,1.5,8,3.2,11.7,5.5c2,1.2,3.8,2.5,5.6,3.9c0.2,0.1,0.3,0.2,0.5,0.1
	c0.7-0.4,1.4-0.9,2-1.6c1.1-1.4,1.2-3.1,0.8-4.8c-0.5-2.2-1.6-4.1-3-5.8c-0.3-0.4-0.7-0.8-1.1-1.2c-0.1,0.3-0.2,0.6-0.3,0.9
	c-0.1,0.3-0.3,0.4-0.5,0.1c-0.4-0.4-0.8-0.9-1.2-1.3c-0.5-0.5-1-1.1-1.6-1.6c-0.1,0.3,0,0.5,0,0.8s-0.1,0.7-0.4,0.8
	c-0.3,0.1-0.4-0.3-0.6-0.4c-0.6-0.7-1.4-1.3-2.2-1.8c0.1,0.4,0.1,0.9-0.1,1.2c-0.2,0.3-0.4,0.4-0.6,0.1c-0.5-0.4-1-0.9-1.6-1.2
	c-0.5-0.3-0.9-0.5-1.6-0.7c0.3,0.3,0.5,0.6,0.6,0.9c0.1,0.3,0,0.5-0.2,0.7s-0.4,0-0.6-0.1c-0.2-0.1-0.4-0.2-0.6-0.4
	c-1-0.5-2-0.8-3.2-1c0.3,0.3,0.6,0.5,0.7,0.7c0.2,0.2,0.5,0.5,0.3,0.9c-0.2,0.3-0.5,0-0.8,0c-1.1-0.3-2.1-0.6-3.3-0.8
	c0.3,0.3,0.6,0.6,0.7,0.9c0.1,0.2,0.1,0.4,0,0.6s-0.3,0.1-0.5,0.1c-0.4-0.1-0.9-0.2-1.3-0.4c-0.9-0.2-1.8-0.3-2.7-0.1
	c-0.1,0-0.3,0-0.3,0.1c0,0.1,0.1,0.2,0.2,0.3c0.2,0.2,0.3,0.3,0.5,0.5c0.1,0.1,0.2,0.2,0.2,0.3c-0.1,0.1-0.2,0.1-0.3,0.1
	c-1.1,0.1-2.2,0.1-3.3,0.1c-0.2,0-0.4-0.1-0.5,0.1c-0.1,0.1,0.1,0.3,0.2,0.4c0.5,0.8,1,1.6,1.3,2.6c0.1,0.4,0,0.5-0.4,0.5
	c-0.4,0-0.7,0-1.1-0.1c-0.3,0-0.3,0.1-0.2,0.3c0.3,0.5,0.6,1,1.1,1.3c0.4,0.4,0.9,0.8,1.3,1.1c0.2,0.2,0.2,0.4-0.1,0.5
	c-0.2,0.1-0.4,0.1-0.6,0.1c-0.3,0-0.7-0.1-1-0.1c0,0.3,0.2,0.4,0.3,0.6c0.6,0.9,1.5,1.6,2.3,2.3c0.3,0.3,0.2,0.4-0.1,0.5
	C-327.5,368.5-327.8,368.5-328.2,368.5z M-288,356.3c-0.2,0.1-0.3,0.2-0.4,0.3c-0.9,0.8-1.6,1.7-2.4,2.5c-0.3,0.3-0.4,0.3-0.6-0.1
	c-0.1-0.2-0.2-0.4-0.2-0.6c-0.1-0.4-0.2-0.3-0.4-0.1c-0.2,0.2-0.4,0.5-0.6,0.7c-1.6,1.9-2.8,3.9-3.3,6.4c-0.5,2.6,0.5,4.8,2.7,5.9
	c0.3,0.2,0.5,0.2,0.8-0.1c5.3-4.3,11.4-7.3,17.8-9.6c0.1,0,0.2-0.1,0.4,0c-0.1,0.1-0.2,0.1-0.3,0.2c-2.7,1.4-5.4,2.9-8,4.6
	c-2.9,1.9-5.8,3.9-8.2,6.4c-0.3,0.4-0.4,0.7-0.2,1.1c0.7,1.9,2.1,3.3,3.9,4.1c2.1,1,4.4,1.3,6.7,1.4c0.4,0,0.8,0,1.2,0
	c-0.2-0.2-0.3-0.3-0.5-0.5s-0.4-0.3-0.4-0.6c0.1-0.2,0.4-0.2,0.6-0.3c0.9-0.1,1.7-0.2,2.6-0.3c0.5-0.1,1.1-0.2,1.6-0.5
	c-0.3-0.2-0.6-0.2-0.8-0.4c-0.1-0.1-0.3-0.2-0.3-0.4s0.2-0.2,0.3-0.2c0.6-0.2,1.2-0.4,1.9-0.6c0.7-0.2,1.4-0.5,2.1-1.1
	c-0.5,0-1,0-1.4-0.2c-0.1-0.1-0.2-0.1-0.2-0.2c0-0.1,0.1-0.2,0.2-0.2c0.6-0.3,1.2-0.6,1.8-0.9s1.3-0.7,1.8-1.2
	c0.1-0.1,0.2-0.1,0.2-0.3c0-0.1-0.2-0.1-0.3-0.1c-0.3,0-0.6,0-0.9-0.1c-0.1,0-0.3,0-0.3-0.2s0.1-0.2,0.2-0.3
	c0.3-0.2,0.7-0.5,1.1-0.7c0.7-0.5,1.4-1.1,2-1.8c-0.5,0-0.8,0-1.2-0.1c-0.1,0-0.3,0-0.4-0.2s0.1-0.3,0.2-0.3c0.5-0.5,1.1-1,1.6-1.5
	c0.4-0.4,0.8-0.8,1-1.3c-0.1-0.1-0.2-0.1-0.3,0c-0.4,0.1-0.9,0.2-1.3,0c-0.3-0.1-0.4-0.3-0.2-0.5c0.3-0.3,0.6-0.5,0.9-0.8
	c0.5-0.5,1-0.9,1.4-1.6c0.1-0.1,0.2-0.2,0.1-0.3c-0.1-0.2-0.2,0-0.3,0c-0.3,0-0.6,0-0.9,0c-0.5,0-0.6-0.1-0.4-0.6
	c0.3-0.9,0.7-1.7,1.2-2.5c0.1-0.1,0.3-0.3,0.2-0.4c-0.1-0.2-0.3-0.1-0.5-0.1c-1.1,0-2.3,0-3.4-0.1c-0.1,0-0.2,0-0.3-0.1
	c0-0.1,0.1-0.2,0.2-0.3c0.2-0.2,0.4-0.4,0.5-0.5c0.2-0.2,0.2-0.4-0.1-0.4c-0.5,0-0.9-0.2-1.4-0.1c-0.9,0.1-1.8,0.3-2.6,0.5
	c-0.2,0.1-0.4,0.2-0.6,0c-0.2-0.3-0.1-0.5,0.1-0.7c0.2-0.2,0.4-0.4,0.6-0.7c-0.2,0-0.2,0-0.3,0c-1.1,0.2-2.2,0.5-3.3,0.8
	c-0.2,0.1-0.3,0.2-0.5,0c-0.1-0.2-0.1-0.4,0-0.5c0.1-0.2,0.2-0.3,0.4-0.4c0.1-0.2,0.3-0.3,0.4-0.5c-0.1,0-0.1,0-0.2,0
	c-0.1,0-0.2,0-0.3,0.1c-1.1,0.3-2.2,0.7-3.2,1.3c-0.4,0.2-0.5,0.1-0.6-0.2c-0.1-0.3,0-0.5,0.2-0.8c0.1-0.2,0.3-0.3,0.3-0.6
	c-0.2,0.1-0.4,0.1-0.5,0.2c-0.9,0.4-1.7,1-2.5,1.7c-0.3,0.3-0.5,0.2-0.7-0.1c-0.3-0.4-0.2-0.8,0-1.3c-1,0.6-1.8,1.3-2.5,2
	c-0.3,0.4-0.5,0.3-0.7-0.1C-288.1,357.2-288,356.8-288,356.3z M-283.7,414.1c0.9,0,2.2-0.2,3.4-0.8c3.5-1.7,5-4.7,5.1-8.4
	c0.1-2.8-0.8-5.4-2.4-7.6c-2.5-3.5-5.8-5.5-10.2-5.4c-2,0.1-3.9,0.8-5.3,2.2c-2.6,2.5-3.3,5.6-2.8,9c0.5,3.4,2.1,6.2,4.8,8.3
	C-289.1,413.1-286.8,414.1-283.7,414.1z M-300.4,401.9c0-0.4,0-0.8,0-1.2c0-0.2,0-0.4-0.1-0.7c-0.7-3.6-2.5-6.1-6.1-7.2
	c-2.5-0.8-4.9-0.5-7.2,0.7c-4.9,2.6-7.5,6.6-7.5,12.2c0,2,0.6,3.9,1.8,5.5c2.4,3.1,5.6,4,9.3,3.2
	C-304.6,413.2-300.3,407.5-300.4,401.9z M-298.9,433.1c3,0,5.1-0.5,6.9-1.6c3.4-2.2,5.2-5.2,5-9.3c-0.2-2.8-1.5-5.1-3.6-6.8
	c-4.7-3.9-11.6-3.4-15.8,1c-2.7,2.8-3.4,7.3-1.6,10.7C-306,431.1-302.5,432.9-298.9,433.1z M-269.4,423.5c0-1.3-0.2-2.9-0.8-4.4
	c-0.3-0.8-0.6-1.6-1.4-2.1c-1.3-0.8-2.6-0.7-4-0.2c-1.6,0.6-2.9,1.7-4.2,2.9c-2.7,2.4-4.7,5.2-5.7,8.7c-0.5,1.7-0.8,3.4-0.6,5.2
	c0.2,1.6,1,2.6,2.6,3c1.8,0.4,3.5,0.3,5.2-0.4c3.2-1.2,5.5-3.4,7.3-6.2C-269.8,428.2-269.4,426-269.4,423.5z M-315.3,436.6
	c0.3,0,0.6,0,0.9,0c1.9-0.1,3.1-1.3,3.3-3.2c0.2-1.8-0.2-3.6-0.7-5.3c-1.3-3.7-3.8-6.4-7.1-8.5c-1.5-1-3.2-1.6-5.1-1.5
	c-1.3,0.1-2.2,0.7-2.8,2c-0.6,1.3-0.7,2.7-0.5,4.1c0.4,3.7,1.7,6.9,4.6,9.4C-320.6,435.4-318.2,436.6-315.3,436.6z M-298,391.5
	c1.2,0,2.3-0.1,3.5-0.3c1.6-0.3,3.1-0.7,4.4-1.7c1.9-1.3,2.4-3.2,1.3-5c-0.2-0.3-0.4-0.7-0.7-0.9c-2.7-2.6-5.9-3.9-9.6-3.7
	c-3.1,0.2-5.7,1.5-7.9,3.6c-1.6,1.7-1.6,3.3,0,5c0.5,0.5,1.1,0.9,1.7,1.3C-303,391-300.6,391.4-298,391.5z M-297.9,446.6
	c2,0.1,4.2-0.8,6.3-2c1.3-0.8,2.5-1.8,3.4-3.1c0.3-0.4,0.5-0.8,0.6-1.3c0.1-1-0.5-1.6-1.3-2c-2-1.2-4.3-1.6-6.6-1.8
	c-2.8-0.2-5.6-0.1-8.4,0.7c-1.5,0.4-3.1,0.9-4.3,1.9c-0.9,0.7-1.1,1.6-0.4,2.6c0.5,0.7,1.1,1.3,1.7,1.8
	C-304.4,445.3-301.7,446.6-297.9,446.6z M-333.1,408.8c0,0.6,0,1.2,0.1,1.8c0.4,2.4,1.2,4.6,3,6.3c0.6,0.6,1.2,0.6,1.9,0
	c0.5-0.4,0.8-1,1.1-1.5c0.8-1.6,1.3-3.3,1.6-5.1c0.6-2.9,0.9-5.8,0.5-8.7c-0.1-0.8-0.3-1.6-0.7-2.3c-0.5-0.7-1.2-0.9-1.9-0.4
	C-331.3,401.2-333.1,404.5-333.1,408.8z M-272.6,403.9c0,1.6,0.1,3.2,0.4,4.8c0.4,2.2,0.9,4.4,1.9,6.4c0.3,0.6,0.6,1.2,1.2,1.6
	c0.6,0.5,1.2,0.5,1.7,0c0.3-0.3,0.6-0.6,0.9-1c2-2.7,2.6-5.7,2.2-8.9c-0.5-3.6-2.4-6.4-5.5-8.3c-0.7-0.4-1.3-0.2-1.8,0.4
	c-0.3,0.4-0.5,0.9-0.6,1.4C-272.6,401.6-272.7,402.7-272.6,403.9z M-271.7,394c0-0.6-0.1-1.4-0.2-2.1c-0.5-3-1.9-5.6-4.4-7.4
	c-2.9-2.2-6.3-2.7-9.8-2.3c-1.5,0.2-1.3,0.6-0.7,1.6s1.5,1.9,2.3,2.8c1.9,2,4.1,3.9,6.3,5.6c1.5,1.2,3,2.3,4.7,3.1
	c0.4,0.2,0.8,0.3,1.2,0.4c0.4,0,0.6-0.1,0.6-0.6C-271.7,394.7-271.7,394.4-271.7,394z M-313.3,381.7c-0.7,0-1.4,0-2.1,0.1
	c-2.6,0.4-4.9,1.3-6.7,3.2c-2.7,2.7-3.7,6-3.6,9.7c0,0.4,0.2,0.6,0.6,0.6c0.4,0,0.7-0.2,1.1-0.3c0.7-0.3,1.4-0.7,2-1.1
	c3.7-2.5,7.1-5.4,10.2-8.8c0.6-0.7,1.2-1.4,1.6-2.3c0.2-0.5,0.1-0.7-0.4-0.8C-311.6,381.8-312.5,381.7-313.3,381.7z"/>
</svg>
