<?xml version="1.0" encoding="utf-8"?>
<!-- Generator: Adobe Illustrator 19.0.0, SVG Export Plug-In . SVG Version: 6.00 Build 0)  -->
<svg version="1.1" id="Layer_1" xmlns="http://www.w3.org/2000/svg" xmlns:xlink="http://www.w3.org/1999/xlink" x="0px" y="0px"
	 viewBox="-349 351 100 100" style="enable-background:new -349 351 100 100;" xml:space="preserve">
<style type="text/css">
	.st0{fill:#00D151;}
	.st1{fill:#FFFFFF;}
</style>
<ellipse class="st0" cx="-323" cy="403.5" rx="19.9" ry="17.8"/>
<ellipse class="st0" cx="-274.5" cy="403.5" rx="19.9" ry="17.8"/>
<g>
	<path class="st1" d="M-347.4,403c0-0.4,0-0.8,0-1.2c-0.1-2.2,0.4-4.4,1.2-6.4c2.1-5.6,5.9-9.7,11.1-12.5c2.7-1.4,5.6-2.3,8.7-2.6
		c4.3-0.4,8.5,0.1,12.6,1.8c2.8,1.1,5.4,2.8,7.6,4.8c2.6,2.3,4.8,5.1,6.8,8c0.3,0.4,0.3,0.4,0.6,0c1.2-1.7,2.5-3.4,3.8-5
		c4.2-4.7,9.1-8,15.4-9.2c4.4-0.8,8.8-0.7,13.2,0.8c3.1,1.1,5.9,2.7,8.4,5c2.9,2.6,5,5.8,6.2,9.5c0.6,1.8,1,3.6,1.1,5.5
		c0.3,4.2-0.5,8.2-2.4,11.9c-2.2,4.2-5.4,7.4-9.5,9.6c-2.8,1.6-5.9,2.5-9.1,2.8c-3.9,0.4-7.7,0.2-11.5-1.1c-3-1-5.7-2.7-8.1-4.8
		c-3-2.6-5.3-5.8-7.5-9.1c-0.3-0.5-0.3-0.5-0.6,0c-1.8,2.7-3.7,5.3-5.9,7.6c-3.8,3.8-8.3,6.4-13.7,7.2c-2.3,0.3-4.6,0.3-6.9,0.1
		c-3.3-0.2-6.3-1.1-9.2-2.6c-1.9-1-3.6-2.2-5.1-3.6c-2.7-2.5-4.8-5.5-6-9.1c-0.7-1.9-1.2-3.9-1.1-6
		C-347.4,404-347.4,403.5-347.4,403z M-323.2,417.9c2.4,0.1,4.6-0.3,6.7-1.2c2.6-1.1,4.6-2.9,6.5-5c2.3-2.6,4.1-5.6,6-8.5
		c0.1-0.2,0.1-0.4,0-0.7c-1.9-3-3.9-5.9-6.4-8.5c-1.4-1.4-3-2.7-4.8-3.7c-3.5-1.8-7.2-2.4-11-1.8c-4.8,0.7-8.6,3.1-11.1,7.2
		c-2.7,4.5-2.8,9.1-0.5,13.8c1.7,3.4,4.4,5.7,7.8,7.1C-327.9,417.5-325.5,417.9-323.2,417.9z M-275.1,417.9c1,0,2.1,0,3.1-0.2
		c4-0.6,7.3-2.4,9.9-5.5c2.8-3.4,4-7.4,3.1-11.7c-1.2-5.9-4.9-9.6-10.5-11.5c-2.2-0.8-4.5-0.8-6.9-0.6c-2.3,0.2-4.6,0.8-6.7,2
		c-2.2,1.2-4.1,2.9-5.8,4.7c-2.1,2.3-3.8,4.8-5.4,7.4c-0.1,0.2-0.1,0.3,0,0.5c1.3,2.1,2.6,4.2,4.1,6.1c1.4,1.9,2.9,3.7,4.8,5.2
		C-282.4,416.8-279,418-275.1,417.9z"/>
	<rect x="-331.4" y="401" class="st1" width="16.2" height="3.6"/>
	<rect x="-277.9" y="395.8" class="st1" width="4.7" height="13.3"/>
	<rect x="-282.2" y="400" class="st1" width="13.3" height="4.7"/>
</g>
</svg>
