<?xml version="1.0" encoding="utf-8"?>
<!-- Generator: Adobe Illustrator 19.0.0, SVG Export Plug-In . SVG Version: 6.00 Build 0)  -->
<svg version="1.1" id="Layer_1" xmlns="http://www.w3.org/2000/svg" xmlns:xlink="http://www.w3.org/1999/xlink" x="0px" y="0px"
	 viewBox="-349 351 100 100" style="enable-background:new -349 351 100 100;" xml:space="preserve">
<style type="text/css">
	.st0{fill:#00D151;}
	.st1{fill:#FFFFFF;}
</style>
<rect x="-344.5" y="389.3" class="st0" width="92.6" height="24.2"/>
<g>
	<path class="st1" d="M-249,393c0,5.7,0,11.4,0,17c-0.8,2.6-2.3,4.4-5,5.1c-29.8,0-59.5,0-89.3,0c-1.2-0.4-2.3-1-3.2-1.9
		s-1.3-2.1-1.8-3.2c0-5.7,0-11.4,0-17c0.8-2.8,2.5-4.5,5.3-5.3c29.5,0,59.1,0,88.6,0c0.5,0.2,1,0.3,1.5,0.6
		C-250.7,389.3-249.5,390.9-249,393z M-308.6,412.5c0.2,0,0.3,0,0.5,0c17.3,0,34.6,0,51.8,0c2.6,0,4.4-1.8,4.4-4.3
		c0-4.3,0-8.5,0-12.8c0-3.1-1.8-4.9-4.9-4.9c-14.6,0-29.2,0-43.8,0c-3.2,0-4.9,1.8-5,5c0,4,0,8,0,12
		C-305.4,409.8-306.3,411.5-308.6,412.5z M-317.9,401.9c0,2.1,0,4.3,0,6.4c0,0.8,0.4,0.9,1,0.9s1.1-0.1,1-0.9c0-0.6,0-1.2,0-1.8
		c0.1-1-0.4-2.2,0.2-2.9c0.6-0.7,1.9-0.2,2.9-0.2c0.4,0,0.7,0,1.1,0c2.2-0.1,3.6-1.3,4-3.2c0.2-1.1,0.2-2.2,0-3.3
		c-0.4-1.8-1.7-2.9-3.5-3c-1.6-0.1-3.3-0.1-5-0.1c-1.3,0-1.7,0.4-1.7,1.7C-317.9,397.7-317.9,399.8-317.9,401.9z M-335.7,393.9
		L-335.7,393.9c-0.7,0-1.5,0-2.2,0c-2.2,0.1-4.2,1.8-4.5,3.9c-0.3,2.4-0.4,4.9,0,7.3c0.3,2.2,2.4,4,4.6,4c1.5,0,3,0,4.5,0
		c0.5,0,0.8-0.1,0.9-0.7c0-0.6-0.3-0.8-0.9-0.8c-1.3,0-2.6,0-3.9,0c-1.5,0-2.6-0.9-3.2-2.2c-0.2-0.5-0.2-1.1-0.2-1.7
		c0-1.4,0-1.4,1.4-1.4c1.5,0,3.1,0,4.6,0c0.7,0,0.9-0.4,0.7-1c-0.2-0.5-0.5-0.4-0.9-0.4c-1.6,0-3.3,0-4.9,0c-0.4,0-0.8,0.1-1-0.4
		c-0.7-2.3,0.8-4.6,3.1-4.9c1.4-0.2,2.8,0,4.2-0.1c0.5,0,0.8-0.2,0.8-0.7s-0.3-0.7-0.8-0.7C-334.1,393.9-334.9,393.9-335.7,393.9z
		 M-326.4,409.2c0.9,0,1.9,0,2.8,0c1.3,0,2.3-0.6,2.9-1.7c0.7-1.1,0.7-2.4,0.5-3.6c-0.4-2.2-2-3.1-4.1-3.5c-1-0.2-2-0.3-3-0.7
		c-0.9-0.3-1.4-0.9-1.5-1.9c-0.1-1.5,0.6-2.3,2.1-2.4c1.3-0.1,2.7,0,4,0c0.5,0,0.8-0.2,0.8-0.7s-0.2-0.8-0.7-0.8
		c-1.8,0-3.6,0-5.5,0.1c-0.9,0-1.7,0.6-2.2,1.3c-1.5,2.3-0.5,5.2,2.1,6.1c1.1,0.4,2.3,0.5,3.4,0.8c2,0.5,2.7,1.5,2.4,3.5
		c-0.2,1.3-0.9,2-2.2,2c-1.7,0-3.4,0-5.1,0c-0.6,0-0.8,0.2-0.8,0.8c0,0.6,0.3,0.8,0.8,0.8C-328.5,409.2-327.4,409.2-326.4,409.2z"/>
	<path class="st1" d="M-297.8,393.8c1.2-0.1,2.4-0.1,3.4,0.8c1.5,1.3,1.8,4.1,0.7,5.8c-0.3,0.5-0.4,0.8,0.1,1.2
		c1.4,1.6,1.3,3.5,0.7,5.3c-0.6,1.8-2.2,2.4-4,2.4c-0.9,0-1.9,0.1-2.8-0.1c-2-0.4-3.2-1.8-3.2-3.8c0-1.5-0.1-2.9,1.2-4
		c0.3-0.2,0.2-0.5,0-0.7c-1-1.3-0.9-2.9-0.6-4.4c0.3-1.4,1.6-2.3,3-2.4C-298.8,393.8-298.3,393.8-297.8,393.8z M-297.8,402
		L-297.8,402c-0.3,0-0.6,0-0.8,0c-1.4,0.1-2.2,0.8-2.2,2.2c0,0.4,0,0.8,0,1.2c0.1,1.3,0.8,2.1,2.1,2.3c0.7,0.1,1.4,0.1,2.1,0
		c1.1-0.2,1.9-0.9,1.9-2c0.1-1.3,0.2-2.6-1.2-3.4c-0.2-0.1-0.5-0.2-0.8-0.2C-297,402-297.4,402-297.8,402z M-297.8,395.4
		c-1.7,0-2.3,0.4-2.6,1.4c-0.2,0.7-0.2,1.4,0,2c0.3,1,0.8,1.4,2,1.4c1.2,0,2.6,0.4,3.1-1.2C-294.8,397.3-295,395.2-297.8,395.4z"/>
	<path class="st1" d="M-277.9,401.7c0-1.3,0-2.6,0.1-3.8c0.2-1.9,1.1-3.1,3-3.7c2-0.6,4-0.6,6,0c0.6,0.2,0.8,0.5,0.6,1.1
		s-0.4,1-1.1,0.7c-1.5-0.6-3-0.6-4.5-0.2c-1.4,0.4-2.3,2.1-1.9,3.5c0.1,0.4,0.5,0.4,0.8,0.4c1.2,0,2.4-0.2,3.5,0
		c2.7,0.3,4.4,2.4,4,5.1c-0.6,3.9-4.6,5.8-8,3.8c-1.8-1-2.3-2.7-2.4-4.6C-278,403.2-277.9,402.4-277.9,401.7z M-275.8,403.4
		c0,0.4,0,0.9,0,1.3c0.1,1.4,0.9,2.3,2.1,2.7c2.6,0.7,4.4-0.7,4.4-3.3c0-1.4-0.6-2.1-1.9-2.5c-0.9-0.3-1.7-0.2-2.6-0.2
		C-276,401.4-275.9,401.1-275.8,403.4z"/>
	<path class="st1" d="M-265.4,401.5c0.1-1.4-0.1-2.8,0.2-4.2c0.3-1.4,1-2.4,2.4-2.8c2.2-0.8,4.4-0.8,6.6-0.2
		c0.7,0.2,0.6,0.6,0.4,1.1c-0.2,0.5-0.3,1-1,0.7c-1.5-0.5-3.1-0.6-4.6-0.2c-1.3,0.4-1.8,1-1.9,2.3c-0.1,1.7-0.5,1.6,1.5,1.6
		c0.8,0,1.6-0.1,2.5,0c3.1,0.3,4.7,2.4,4.2,5.5c-0.4,2.5-2,3.9-4.8,4.1c-3.2,0.2-5.5-1.8-5.5-5.1
		C-265.4,403.3-265.4,402.4-265.4,401.5z M-261.1,401.3c-0.5,0-1,0-1.6,0c-0.5,0-0.8,0.2-0.8,0.8c0,0.7,0,1.5,0,2.2
		c0.1,1.7,0.8,2.7,2.1,3c2.5,0.7,4.3-0.6,4.4-3.2c0-1.5-0.5-2.3-2-2.7C-259.6,401.3-260.4,401.3-261.1,401.3z"/>
	<path class="st1" d="M-285,409.3c-1.4,0-2.8,0-4.1,0c-0.7,0-0.9-0.3-1-0.9c-0.2-2.2,0.6-4,2.2-5.5c0.9-0.8,2-1.5,3-2.1
		c0.5-0.3,1-0.6,1.4-1c1.2-0.9,1.5-1.7,1-2.8c-0.5-1.1-1.7-1.8-3-1.6c-1,0.1-2,0.4-2.9,0.9c-0.7,0.4-0.9-0.1-1.1-0.5
		c-0.3-0.5-0.2-0.8,0.4-1.1c1.8-0.8,3.6-1.2,5.6-0.7c1.6,0.4,2.7,1.4,3.1,3c0.4,1.5-0.2,2.8-1.3,3.8c-1,1-2.3,1.6-3.5,2.3
		c-1.3,0.8-2.3,1.7-2.8,3.2c-0.4,1.2-0.2,1.4,1,1.4c2,0,4,0,6,0c0.6,0,0.9,0.1,0.9,0.8c0,0.7-0.4,0.8-0.9,0.8
		C-282.3,409.3-283.7,409.3-285,409.3z"/>
	<path class="st1" d="M-315.8,398.6c0-0.8,0-1.6,0-2.5c0-0.5,0.2-0.7,0.7-0.8c1.2,0,2.3,0,3.5,0.1c0.3,0,0.6,0.1,0.9,0.3
		c1.5,0.9,1.3,2.4,1.1,3.8c-0.1,1.2-0.7,1.8-1.9,2.1c-1.2,0.3-2.5,0.1-3.7,0.1c-0.5,0-0.6-0.3-0.6-0.7
		C-315.8,400.2-315.8,399.4-315.8,398.6z"/>
</g>
</svg>
